<svg width="107" height="34" viewBox="0 0 107 34" fill="none" xmlns="http://www.w3.org/2000/svg">
<rect width="107" height="34" rx="10" fill="url(#paint0_linear_15_1000)"/>
<path d="M21.232 22V12.2H23.36L26.93 18.01L25.404 17.996L29.016 12.2H31.06V22H28.75V18.948C28.75 18.108 28.7687 17.352 28.806 16.68C28.8527 16.008 28.9273 15.3407 29.03 14.678L29.296 15.406L26.58 19.62H25.656L22.996 15.434L23.262 14.678C23.3647 15.3033 23.4347 15.9473 23.472 16.61C23.5187 17.2633 23.542 18.0427 23.542 18.948V22H21.232ZM36.827 22.14C36.0057 22.14 35.2917 21.9767 34.685 21.65C34.0783 21.314 33.607 20.8613 33.271 20.292C32.935 19.7133 32.767 19.0553 32.767 18.318C32.767 17.7487 32.8603 17.226 33.047 16.75C33.2337 16.274 33.495 15.8633 33.831 15.518C34.167 15.1633 34.5637 14.8927 35.021 14.706C35.4877 14.51 35.9963 14.412 36.547 14.412C37.0697 14.412 37.5457 14.5053 37.975 14.692C38.4137 14.8787 38.7917 15.14 39.109 15.476C39.4263 15.812 39.669 16.2087 39.837 16.666C40.005 17.1233 40.0797 17.6227 40.061 18.164L40.047 18.766H34.125L33.803 17.506H38.227L37.989 17.772V17.492C37.9703 17.2587 37.8957 17.0533 37.765 16.876C37.6437 16.6893 37.4803 16.5447 37.275 16.442C37.0697 16.3393 36.8363 16.288 36.575 16.288C36.211 16.288 35.8983 16.3627 35.637 16.512C35.385 16.652 35.1937 16.862 35.063 17.142C34.9323 17.4127 34.867 17.7487 34.867 18.15C34.867 18.5607 34.951 18.92 35.119 19.228C35.2963 19.5267 35.5483 19.76 35.875 19.928C36.211 20.096 36.6077 20.18 37.065 20.18C37.3823 20.18 37.6623 20.1333 37.905 20.04C38.157 19.9467 38.4277 19.788 38.717 19.564L39.767 21.048C39.4777 21.3 39.1697 21.5053 38.843 21.664C38.5163 21.8227 38.1803 21.9393 37.835 22.014C37.499 22.098 37.163 22.14 36.827 22.14ZM41.4881 22V14.566H43.6161L43.6861 16.078L43.2381 16.246C43.3408 15.91 43.5228 15.6067 43.7841 15.336C44.0548 15.056 44.3768 14.832 44.7501 14.664C45.1235 14.496 45.5155 14.412 45.9261 14.412C46.4861 14.412 46.9575 14.5287 47.3401 14.762C47.7228 14.986 48.0121 15.3267 48.2081 15.784C48.4041 16.232 48.5021 16.7827 48.5021 17.436V22H46.2481V17.618C46.2481 17.3193 46.2061 17.072 46.1221 16.876C46.0381 16.68 45.9075 16.5353 45.7301 16.442C45.5621 16.3393 45.3521 16.2927 45.1001 16.302C44.9041 16.302 44.7221 16.3347 44.5541 16.4C44.3861 16.456 44.2415 16.5447 44.1201 16.666C43.9988 16.778 43.9008 16.9087 43.8261 17.058C43.7608 17.2073 43.7281 17.3707 43.7281 17.548V22H42.6221C42.3608 22 42.1368 22 41.9501 22C41.7635 22 41.6095 22 41.4881 22ZM52.9089 22.154C52.3582 22.154 51.8869 22.0373 51.4949 21.804C51.1122 21.5613 50.8135 21.216 50.5989 20.768C50.3935 20.32 50.2909 19.7833 50.2909 19.158V14.566H52.5449V18.85C52.5449 19.1487 52.5915 19.4053 52.6849 19.62C52.7782 19.8347 52.9182 20.0027 53.1049 20.124C53.2915 20.236 53.5155 20.292 53.7769 20.292C53.9729 20.292 54.1502 20.2593 54.3089 20.194C54.4769 20.1287 54.6169 20.04 54.7289 19.928C54.8502 19.8067 54.9435 19.6713 55.0089 19.522C55.0742 19.3633 55.1069 19.1907 55.1069 19.004V14.566H57.3609V22H55.2469L55.1489 20.474L55.5689 20.306C55.4569 20.6607 55.2702 20.978 55.0089 21.258C54.7475 21.5287 54.4349 21.748 54.0709 21.916C53.7069 22.0747 53.3195 22.154 52.9089 22.154Z" fill="white"/>
<path d="M80.3333 21.9997V23.6663H71.1667V21.9997H80.3333ZM84.5 16.1663V17.833H69.5V16.1663H84.5ZM82.8333 10.333V11.9997H73.6667V10.333H82.8333Z" fill="#FCFCFC"/>
<defs>
<linearGradient id="paint0_linear_15_1000" x1="107" y1="34" x2="87.3741" y2="-27.7637" gradientUnits="userSpaceOnUse">
<stop stop-color="#C471F5"/>
<stop offset="1" stop-color="#F5576C"/>
</linearGradient>
</defs>
</svg>
