<svg width="134" height="138" viewBox="0 0 134 138" fill="none" xmlns="http://www.w3.org/2000/svg">
<rect width="76.6667" height="76.6667" transform="matrix(0.866025 0.5 -0.866025 0.5 66.6406 61.334)" fill="url(#paint0_linear_11_442)"/>
<rect width="76.6667" height="76.6667" transform="matrix(0.866025 0.5 -0.866025 0.5 66.6406 46)" fill="url(#paint1_linear_11_442)"/>
<rect width="76.6667" height="76.6667" transform="matrix(0.866025 0.5 -0.866025 0.5 66.6406 30.667)" fill="url(#paint2_linear_11_442)"/>
<rect width="76.6667" height="76.6667" transform="matrix(0.866025 0.5 -0.866025 0.5 66.6406 15.333)" fill="url(#paint3_linear_11_442)"/>
<rect width="76.6667" height="76.6667" transform="matrix(0.866025 0.5 -0.866025 0.5 66.6406 0)" fill="url(#paint4_linear_11_442)"/>
<defs>
<linearGradient id="paint0_linear_11_442" x1="85.6889" y1="84.8944" x2="16.6889" y2="84.8944" gradientUnits="userSpaceOnUse">
<stop stop-color="white" stop-opacity="0.65"/>
<stop offset="1" stop-color="white" stop-opacity="0.1"/>
</linearGradient>
<linearGradient id="paint1_linear_11_442" x1="85.6889" y1="84.8944" x2="16.6889" y2="84.8944" gradientUnits="userSpaceOnUse">
<stop stop-color="white" stop-opacity="0.65"/>
<stop offset="1" stop-color="white" stop-opacity="0.1"/>
</linearGradient>
<linearGradient id="paint2_linear_11_442" x1="85.6889" y1="84.8944" x2="16.6889" y2="84.8944" gradientUnits="userSpaceOnUse">
<stop stop-color="white" stop-opacity="0.65"/>
<stop offset="1" stop-color="white" stop-opacity="0.1"/>
</linearGradient>
<linearGradient id="paint3_linear_11_442" x1="85.6889" y1="84.8944" x2="16.6889" y2="84.8944" gradientUnits="userSpaceOnUse">
<stop stop-color="white" stop-opacity="0.65"/>
<stop offset="1" stop-color="white" stop-opacity="0.1"/>
</linearGradient>
<linearGradient id="paint4_linear_11_442" x1="85.6889" y1="84.8944" x2="16.6889" y2="84.8944" gradientUnits="userSpaceOnUse">
<stop stop-color="white" stop-opacity="0.65"/>
<stop offset="1" stop-color="white" stop-opacity="0.1"/>
</linearGradient>
</defs>
</svg>
