<svg width="151" height="150" viewBox="0 0 151 150" fill="none" xmlns="http://www.w3.org/2000/svg">
<rect x="4.21289" y="84.2207" width="114.291" height="1.42863" transform="rotate(-45 4.21289 84.2207)" fill="url(#paint0_linear_11_363)"/>
<rect x="6.23242" y="86.2402" width="114.291" height="1.42863" transform="rotate(-45 6.23242 86.2402)" fill="url(#paint1_linear_11_363)"/>
<rect x="8.25293" y="88.2578" width="114.291" height="1.42863" transform="rotate(-45 8.25293 88.2578)" fill="url(#paint2_linear_11_363)"/>
<rect x="10.2734" y="90.2783" width="114.291" height="1.42863" transform="rotate(-45 10.2734 90.2783)" fill="url(#paint3_linear_11_363)"/>
<rect x="12.293" y="92.2979" width="114.291" height="1.42863" transform="rotate(-45 12.293 92.2979)" fill="url(#paint4_linear_11_363)"/>
<rect x="14.3159" y="94.3232" width="114.291" height="1.42863" transform="rotate(-45 14.3159 94.3232)" fill="url(#paint5_linear_11_363)"/>
<rect x="16.3384" y="96.3438" width="114.291" height="1.42863" transform="rotate(-45 16.3384 96.3438)" fill="url(#paint6_linear_11_363)"/>
<rect x="18.3569" y="98.3633" width="114.291" height="1.42863" transform="rotate(-45 18.3569 98.3633)" fill="url(#paint7_linear_11_363)"/>
<rect x="20.3784" y="100.384" width="114.291" height="1.42863" transform="rotate(-45 20.3784 100.384)" fill="url(#paint8_linear_11_363)"/>
<rect x="22.3979" y="102.403" width="114.291" height="1.42863" transform="rotate(-45 22.3979 102.403)" fill="url(#paint9_linear_11_363)"/>
<rect x="24.4185" y="104.424" width="114.291" height="1.42863" transform="rotate(-45 24.4185 104.424)" fill="url(#paint10_linear_11_363)"/>
<rect x="26.438" y="106.443" width="114.291" height="1.42863" transform="rotate(-45 26.438 106.443)" fill="url(#paint11_linear_11_363)"/>
<rect x="28.4585" y="108.463" width="114.291" height="1.42863" transform="rotate(-45 28.4585 108.463)" fill="url(#paint12_linear_11_363)"/>
<rect x="30.478" y="110.483" width="114.291" height="1.42863" transform="rotate(-45 30.478 110.483)" fill="url(#paint13_linear_11_363)"/>
<rect x="32.4985" y="112.503" width="114.291" height="1.42863" transform="rotate(-45 32.4985 112.503)" fill="url(#paint14_linear_11_363)"/>
<rect x="34.52" y="114.521" width="114.291" height="1.42863" transform="rotate(-45 34.52 114.521)" fill="url(#paint15_linear_11_363)"/>
<rect x="36.542" y="116.546" width="114.291" height="1.42863" transform="rotate(-45 36.542 116.546)" fill="url(#paint16_linear_11_363)"/>
<rect x="38.5615" y="118.566" width="114.291" height="1.42863" transform="rotate(-45 38.5615 118.566)" fill="url(#paint17_linear_11_363)"/>
<rect x="40.582" y="120.587" width="114.291" height="1.42863" transform="rotate(-45 40.582 120.587)" fill="url(#paint18_linear_11_363)"/>
<rect x="42.6006" y="122.606" width="114.291" height="1.42863" transform="rotate(-45 42.6006 122.606)" fill="url(#paint19_linear_11_363)"/>
<rect x="44.6211" y="124.627" width="114.291" height="1.42863" transform="rotate(-45 44.6211 124.627)" fill="url(#paint20_linear_11_363)"/>
<rect x="46.6406" y="126.646" width="114.291" height="1.42863" transform="rotate(-45 46.6406 126.646)" fill="url(#paint21_linear_11_363)"/>
<rect x="48.6611" y="128.667" width="114.291" height="1.42863" transform="rotate(-45 48.6611 128.667)" fill="url(#paint22_linear_11_363)"/>
<rect x="50.6807" y="130.687" width="114.291" height="1.42863" transform="rotate(-45 50.6807 130.687)" fill="url(#paint23_linear_11_363)"/>
<rect x="52.7012" y="132.707" width="114.291" height="1.42863" transform="rotate(-45 52.7012 132.707)" fill="url(#paint24_linear_11_363)"/>
<rect x="54.7217" y="134.729" width="114.291" height="1.42863" transform="rotate(-45 54.7217 134.729)" fill="url(#paint25_linear_11_363)"/>
<rect x="56.7422" y="136.747" width="114.291" height="1.42863" transform="rotate(-45 56.7422 136.747)" fill="url(#paint26_linear_11_363)"/>
<rect x="58.7646" y="138.772" width="114.291" height="1.42863" transform="rotate(-45 58.7646 138.772)" fill="url(#paint27_linear_11_363)"/>
<rect x="60.7842" y="140.792" width="114.291" height="1.42863" transform="rotate(-45 60.7842 140.792)" fill="url(#paint28_linear_11_363)"/>
<rect x="62.8047" y="142.81" width="114.291" height="1.42863" transform="rotate(-45 62.8047 142.81)" fill="url(#paint29_linear_11_363)"/>
<rect x="64.8242" y="144.832" width="114.291" height="1.42863" transform="rotate(-45 64.8242 144.832)" fill="url(#paint30_linear_11_363)"/>
<rect x="66.8447" y="146.85" width="114.291" height="1.42863" transform="rotate(-45 66.8447 146.85)" fill="url(#paint31_linear_11_363)"/>
<rect x="68.8652" y="148.872" width="114.291" height="1.42863" transform="rotate(-45 68.8652 148.872)" fill="url(#paint32_linear_11_363)"/>
<rect x="80.8452" y="146.481" width="114.291" height="1.42863" transform="rotate(-135 80.8452 146.481)" fill="url(#paint33_linear_11_363)"/>
<rect x="82.8657" y="144.461" width="114.291" height="1.42863" transform="rotate(-135 82.8657 144.461)" fill="url(#paint34_linear_11_363)"/>
<rect x="84.8853" y="142.441" width="114.291" height="1.42863" transform="rotate(-135 84.8853 142.441)" fill="url(#paint35_linear_11_363)"/>
<rect x="86.9058" y="140.419" width="114.291" height="1.42863" transform="rotate(-135 86.9058 140.419)" fill="url(#paint36_linear_11_363)"/>
<rect x="88.9253" y="138.401" width="114.291" height="1.42863" transform="rotate(-135 88.9253 138.401)" fill="url(#paint37_linear_11_363)"/>
<rect x="90.9434" y="136.379" width="114.291" height="1.42863" transform="rotate(-135 90.9434 136.379)" fill="url(#paint38_linear_11_363)"/>
<rect x="92.9707" y="134.356" width="114.291" height="1.42863" transform="rotate(-135 92.9707 134.356)" fill="url(#paint39_linear_11_363)"/>
<rect x="94.9902" y="132.337" width="114.291" height="1.42863" transform="rotate(-135 94.9902 132.337)" fill="url(#paint40_linear_11_363)"/>
<rect x="97.0088" y="130.317" width="114.291" height="1.42863" transform="rotate(-135 97.0088 130.317)" fill="url(#paint41_linear_11_363)"/>
<rect x="99.0303" y="128.297" width="114.291" height="1.42863" transform="rotate(-135 99.0303 128.297)" fill="url(#paint42_linear_11_363)"/>
<rect x="101.048" y="126.277" width="114.291" height="1.42863" transform="rotate(-135 101.048 126.277)" fill="url(#paint43_linear_11_363)"/>
<rect x="103.068" y="124.257" width="114.291" height="1.42863" transform="rotate(-135 103.068 124.257)" fill="url(#paint44_linear_11_363)"/>
<rect x="105.088" y="122.237" width="114.291" height="1.42863" transform="rotate(-135 105.088 122.237)" fill="url(#paint45_linear_11_363)"/>
<rect x="107.11" y="120.214" width="114.291" height="1.42863" transform="rotate(-135 107.11 120.214)" fill="url(#paint46_linear_11_363)"/>
<rect x="109.128" y="118.196" width="114.291" height="1.42863" transform="rotate(-135 109.128 118.196)" fill="url(#paint47_linear_11_363)"/>
<rect x="111.15" y="116.174" width="114.291" height="1.42863" transform="rotate(-135 111.15 116.174)" fill="url(#paint48_linear_11_363)"/>
<rect x="113.17" y="114.155" width="114.291" height="1.42863" transform="rotate(-135 113.17 114.155)" fill="url(#paint49_linear_11_363)"/>
<rect x="115.193" y="112.133" width="114.291" height="1.42863" transform="rotate(-135 115.193 112.133)" fill="url(#paint50_linear_11_363)"/>
<rect x="117.212" y="110.112" width="114.291" height="1.42863" transform="rotate(-135 117.212 110.112)" fill="url(#paint51_linear_11_363)"/>
<rect x="119.233" y="108.094" width="114.291" height="1.42863" transform="rotate(-135 119.233 108.094)" fill="url(#paint52_linear_11_363)"/>
<rect x="121.252" y="106.075" width="114.291" height="1.42863" transform="rotate(-135 121.252 106.075)" fill="url(#paint53_linear_11_363)"/>
<rect x="123.271" y="104.053" width="114.291" height="1.42863" transform="rotate(-135 123.271 104.053)" fill="url(#paint54_linear_11_363)"/>
<rect x="125.292" y="102.032" width="114.291" height="1.42863" transform="rotate(-135 125.292 102.032)" fill="url(#paint55_linear_11_363)"/>
<rect x="127.312" y="100.013" width="114.291" height="1.42863" transform="rotate(-135 127.312 100.013)" fill="url(#paint56_linear_11_363)"/>
<rect x="129.333" y="97.9941" width="114.291" height="1.42863" transform="rotate(-135 129.333 97.9941)" fill="url(#paint57_linear_11_363)"/>
<rect x="131.356" y="95.9707" width="114.291" height="1.42863" transform="rotate(-135 131.356 95.9707)" fill="url(#paint58_linear_11_363)"/>
<rect x="133.375" y="93.9502" width="114.291" height="1.42863" transform="rotate(-135 133.375 93.9502)" fill="url(#paint59_linear_11_363)"/>
<rect x="135.394" y="91.9287" width="114.291" height="1.42863" transform="rotate(-135 135.394 91.9287)" fill="url(#paint60_linear_11_363)"/>
<rect x="137.417" y="89.9082" width="114.291" height="1.42863" transform="rotate(-135 137.417 89.9082)" fill="url(#paint61_linear_11_363)"/>
<rect x="139.437" y="87.8896" width="114.291" height="1.42863" transform="rotate(-135 139.437 87.8896)" fill="url(#paint62_linear_11_363)"/>
<rect x="141.458" y="85.8652" width="114.291" height="1.42863" transform="rotate(-135 141.458 85.8652)" fill="url(#paint63_linear_11_363)"/>
<rect x="143.479" y="83.8477" width="114.291" height="1.42863" transform="rotate(-135 143.479 83.8477)" fill="url(#paint64_linear_11_363)"/>
<rect x="145.499" y="81.8271" width="114.291" height="1.42863" transform="rotate(-135 145.499 81.8271)" fill="url(#paint65_linear_11_363)"/>
<defs>
<linearGradient id="paint0_linear_11_363" x1="131.954" y1="85.8027" x2="29.0919" y2="85.8024" gradientUnits="userSpaceOnUse">
<stop stop-color="white" stop-opacity="0.65"/>
<stop offset="1" stop-color="white" stop-opacity="0.1"/>
</linearGradient>
<linearGradient id="paint1_linear_11_363" x1="133.973" y1="87.8222" x2="31.1114" y2="87.822" gradientUnits="userSpaceOnUse">
<stop stop-color="white" stop-opacity="0.65"/>
<stop offset="1" stop-color="white" stop-opacity="0.1"/>
</linearGradient>
<linearGradient id="paint2_linear_11_363" x1="135.994" y1="89.8398" x2="33.132" y2="89.8395" gradientUnits="userSpaceOnUse">
<stop stop-color="white" stop-opacity="0.65"/>
<stop offset="1" stop-color="white" stop-opacity="0.1"/>
</linearGradient>
<linearGradient id="paint3_linear_11_363" x1="138.014" y1="91.8603" x2="35.1525" y2="91.86" gradientUnits="userSpaceOnUse">
<stop stop-color="white" stop-opacity="0.65"/>
<stop offset="1" stop-color="white" stop-opacity="0.1"/>
</linearGradient>
<linearGradient id="paint4_linear_11_363" x1="140.034" y1="93.8798" x2="37.172" y2="93.8796" gradientUnits="userSpaceOnUse">
<stop stop-color="white" stop-opacity="0.65"/>
<stop offset="1" stop-color="white" stop-opacity="0.1"/>
</linearGradient>
<linearGradient id="paint5_linear_11_363" x1="142.057" y1="95.9052" x2="39.1949" y2="95.905" gradientUnits="userSpaceOnUse">
<stop stop-color="white" stop-opacity="0.65"/>
<stop offset="1" stop-color="white" stop-opacity="0.1"/>
</linearGradient>
<linearGradient id="paint6_linear_11_363" x1="144.079" y1="97.9257" x2="41.2174" y2="97.9255" gradientUnits="userSpaceOnUse">
<stop stop-color="white" stop-opacity="0.65"/>
<stop offset="1" stop-color="white" stop-opacity="0.1"/>
</linearGradient>
<linearGradient id="paint7_linear_11_363" x1="146.098" y1="99.9452" x2="43.236" y2="99.945" gradientUnits="userSpaceOnUse">
<stop stop-color="white" stop-opacity="0.65"/>
<stop offset="1" stop-color="white" stop-opacity="0.1"/>
</linearGradient>
<linearGradient id="paint8_linear_11_363" x1="148.119" y1="101.966" x2="45.2574" y2="101.966" gradientUnits="userSpaceOnUse">
<stop stop-color="white" stop-opacity="0.65"/>
<stop offset="1" stop-color="white" stop-opacity="0.1"/>
</linearGradient>
<linearGradient id="paint9_linear_11_363" x1="150.139" y1="103.985" x2="47.277" y2="103.985" gradientUnits="userSpaceOnUse">
<stop stop-color="white" stop-opacity="0.65"/>
<stop offset="1" stop-color="white" stop-opacity="0.1"/>
</linearGradient>
<linearGradient id="paint10_linear_11_363" x1="152.159" y1="106.006" x2="49.2975" y2="106.006" gradientUnits="userSpaceOnUse">
<stop stop-color="white" stop-opacity="0.65"/>
<stop offset="1" stop-color="white" stop-opacity="0.1"/>
</linearGradient>
<linearGradient id="paint11_linear_11_363" x1="154.179" y1="108.025" x2="51.317" y2="108.025" gradientUnits="userSpaceOnUse">
<stop stop-color="white" stop-opacity="0.65"/>
<stop offset="1" stop-color="white" stop-opacity="0.1"/>
</linearGradient>
<linearGradient id="paint12_linear_11_363" x1="156.199" y1="110.045" x2="53.3375" y2="110.045" gradientUnits="userSpaceOnUse">
<stop stop-color="white" stop-opacity="0.65"/>
<stop offset="1" stop-color="white" stop-opacity="0.1"/>
</linearGradient>
<linearGradient id="paint13_linear_11_363" x1="158.219" y1="112.065" x2="55.357" y2="112.065" gradientUnits="userSpaceOnUse">
<stop stop-color="white" stop-opacity="0.65"/>
<stop offset="1" stop-color="white" stop-opacity="0.1"/>
</linearGradient>
<linearGradient id="paint14_linear_11_363" x1="160.239" y1="114.085" x2="57.3776" y2="114.085" gradientUnits="userSpaceOnUse">
<stop stop-color="white" stop-opacity="0.65"/>
<stop offset="1" stop-color="white" stop-opacity="0.1"/>
</linearGradient>
<linearGradient id="paint15_linear_11_363" x1="162.261" y1="116.103" x2="59.399" y2="116.103" gradientUnits="userSpaceOnUse">
<stop stop-color="white" stop-opacity="0.65"/>
<stop offset="1" stop-color="white" stop-opacity="0.1"/>
</linearGradient>
<linearGradient id="paint16_linear_11_363" x1="164.283" y1="118.128" x2="61.421" y2="118.128" gradientUnits="userSpaceOnUse">
<stop stop-color="white" stop-opacity="0.65"/>
<stop offset="1" stop-color="white" stop-opacity="0.1"/>
</linearGradient>
<linearGradient id="paint17_linear_11_363" x1="166.302" y1="120.148" x2="63.4405" y2="120.148" gradientUnits="userSpaceOnUse">
<stop stop-color="white" stop-opacity="0.65"/>
<stop offset="1" stop-color="white" stop-opacity="0.1"/>
</linearGradient>
<linearGradient id="paint18_linear_11_363" x1="168.323" y1="122.169" x2="65.4611" y2="122.169" gradientUnits="userSpaceOnUse">
<stop stop-color="white" stop-opacity="0.65"/>
<stop offset="1" stop-color="white" stop-opacity="0.1"/>
</linearGradient>
<linearGradient id="paint19_linear_11_363" x1="170.341" y1="124.188" x2="67.4796" y2="124.188" gradientUnits="userSpaceOnUse">
<stop stop-color="white" stop-opacity="0.65"/>
<stop offset="1" stop-color="white" stop-opacity="0.1"/>
</linearGradient>
<linearGradient id="paint20_linear_11_363" x1="172.362" y1="126.209" x2="69.5001" y2="126.209" gradientUnits="userSpaceOnUse">
<stop stop-color="white" stop-opacity="0.65"/>
<stop offset="1" stop-color="white" stop-opacity="0.1"/>
</linearGradient>
<linearGradient id="paint21_linear_11_363" x1="174.381" y1="128.228" x2="71.5196" y2="128.228" gradientUnits="userSpaceOnUse">
<stop stop-color="white" stop-opacity="0.65"/>
<stop offset="1" stop-color="white" stop-opacity="0.1"/>
</linearGradient>
<linearGradient id="paint22_linear_11_363" x1="176.402" y1="130.249" x2="73.5402" y2="130.249" gradientUnits="userSpaceOnUse">
<stop stop-color="white" stop-opacity="0.65"/>
<stop offset="1" stop-color="white" stop-opacity="0.1"/>
</linearGradient>
<linearGradient id="paint23_linear_11_363" x1="178.421" y1="132.268" x2="75.5597" y2="132.268" gradientUnits="userSpaceOnUse">
<stop stop-color="white" stop-opacity="0.65"/>
<stop offset="1" stop-color="white" stop-opacity="0.1"/>
</linearGradient>
<linearGradient id="paint24_linear_11_363" x1="180.442" y1="134.289" x2="77.5802" y2="134.289" gradientUnits="userSpaceOnUse">
<stop stop-color="white" stop-opacity="0.65"/>
<stop offset="1" stop-color="white" stop-opacity="0.1"/>
</linearGradient>
<linearGradient id="paint25_linear_11_363" x1="182.462" y1="136.311" x2="79.6007" y2="136.311" gradientUnits="userSpaceOnUse">
<stop stop-color="white" stop-opacity="0.65"/>
<stop offset="1" stop-color="white" stop-opacity="0.1"/>
</linearGradient>
<linearGradient id="paint26_linear_11_363" x1="184.483" y1="138.329" x2="81.6212" y2="138.329" gradientUnits="userSpaceOnUse">
<stop stop-color="white" stop-opacity="0.65"/>
<stop offset="1" stop-color="white" stop-opacity="0.1"/>
</linearGradient>
<linearGradient id="paint27_linear_11_363" x1="186.505" y1="140.354" x2="83.6437" y2="140.354" gradientUnits="userSpaceOnUse">
<stop stop-color="white" stop-opacity="0.65"/>
<stop offset="1" stop-color="white" stop-opacity="0.1"/>
</linearGradient>
<linearGradient id="paint28_linear_11_363" x1="188.525" y1="142.374" x2="85.6632" y2="142.374" gradientUnits="userSpaceOnUse">
<stop stop-color="white" stop-opacity="0.65"/>
<stop offset="1" stop-color="white" stop-opacity="0.1"/>
</linearGradient>
<linearGradient id="paint29_linear_11_363" x1="190.545" y1="144.392" x2="87.6837" y2="144.391" gradientUnits="userSpaceOnUse">
<stop stop-color="white" stop-opacity="0.65"/>
<stop offset="1" stop-color="white" stop-opacity="0.1"/>
</linearGradient>
<linearGradient id="paint30_linear_11_363" x1="192.565" y1="146.414" x2="89.7032" y2="146.414" gradientUnits="userSpaceOnUse">
<stop stop-color="white" stop-opacity="0.65"/>
<stop offset="1" stop-color="white" stop-opacity="0.1"/>
</linearGradient>
<linearGradient id="paint31_linear_11_363" x1="194.585" y1="148.432" x2="91.7237" y2="148.431" gradientUnits="userSpaceOnUse">
<stop stop-color="white" stop-opacity="0.65"/>
<stop offset="1" stop-color="white" stop-opacity="0.1"/>
</linearGradient>
<linearGradient id="paint32_linear_11_363" x1="196.606" y1="150.454" x2="93.7443" y2="150.454" gradientUnits="userSpaceOnUse">
<stop stop-color="white" stop-opacity="0.65"/>
<stop offset="1" stop-color="white" stop-opacity="0.1"/>
</linearGradient>
<linearGradient id="paint33_linear_11_363" x1="208.586" y1="148.063" x2="105.724" y2="148.063" gradientUnits="userSpaceOnUse">
<stop stop-color="white" stop-opacity="0.65"/>
<stop offset="1" stop-color="white" stop-opacity="0.1"/>
</linearGradient>
<linearGradient id="paint34_linear_11_363" x1="210.606" y1="146.043" x2="107.745" y2="146.043" gradientUnits="userSpaceOnUse">
<stop stop-color="white" stop-opacity="0.65"/>
<stop offset="1" stop-color="white" stop-opacity="0.1"/>
</linearGradient>
<linearGradient id="paint35_linear_11_363" x1="212.626" y1="144.023" x2="109.764" y2="144.023" gradientUnits="userSpaceOnUse">
<stop stop-color="white" stop-opacity="0.65"/>
<stop offset="1" stop-color="white" stop-opacity="0.1"/>
</linearGradient>
<linearGradient id="paint36_linear_11_363" x1="214.646" y1="142.001" x2="111.785" y2="142.001" gradientUnits="userSpaceOnUse">
<stop stop-color="white" stop-opacity="0.65"/>
<stop offset="1" stop-color="white" stop-opacity="0.1"/>
</linearGradient>
<linearGradient id="paint37_linear_11_363" x1="216.666" y1="139.983" x2="113.804" y2="139.983" gradientUnits="userSpaceOnUse">
<stop stop-color="white" stop-opacity="0.65"/>
<stop offset="1" stop-color="white" stop-opacity="0.1"/>
</linearGradient>
<linearGradient id="paint38_linear_11_363" x1="218.684" y1="137.961" x2="115.822" y2="137.961" gradientUnits="userSpaceOnUse">
<stop stop-color="white" stop-opacity="0.65"/>
<stop offset="1" stop-color="white" stop-opacity="0.1"/>
</linearGradient>
<linearGradient id="paint39_linear_11_363" x1="220.711" y1="135.938" x2="117.85" y2="135.938" gradientUnits="userSpaceOnUse">
<stop stop-color="white" stop-opacity="0.65"/>
<stop offset="1" stop-color="white" stop-opacity="0.1"/>
</linearGradient>
<linearGradient id="paint40_linear_11_363" x1="222.731" y1="133.919" x2="119.869" y2="133.919" gradientUnits="userSpaceOnUse">
<stop stop-color="white" stop-opacity="0.65"/>
<stop offset="1" stop-color="white" stop-opacity="0.1"/>
</linearGradient>
<linearGradient id="paint41_linear_11_363" x1="224.749" y1="131.899" x2="121.888" y2="131.899" gradientUnits="userSpaceOnUse">
<stop stop-color="white" stop-opacity="0.65"/>
<stop offset="1" stop-color="white" stop-opacity="0.1"/>
</linearGradient>
<linearGradient id="paint42_linear_11_363" x1="226.771" y1="129.879" x2="123.909" y2="129.879" gradientUnits="userSpaceOnUse">
<stop stop-color="white" stop-opacity="0.65"/>
<stop offset="1" stop-color="white" stop-opacity="0.1"/>
</linearGradient>
<linearGradient id="paint43_linear_11_363" x1="228.789" y1="127.859" x2="125.927" y2="127.859" gradientUnits="userSpaceOnUse">
<stop stop-color="white" stop-opacity="0.65"/>
<stop offset="1" stop-color="white" stop-opacity="0.1"/>
</linearGradient>
<linearGradient id="paint44_linear_11_363" x1="230.809" y1="125.839" x2="127.947" y2="125.839" gradientUnits="userSpaceOnUse">
<stop stop-color="white" stop-opacity="0.65"/>
<stop offset="1" stop-color="white" stop-opacity="0.1"/>
</linearGradient>
<linearGradient id="paint45_linear_11_363" x1="232.829" y1="123.819" x2="129.967" y2="123.819" gradientUnits="userSpaceOnUse">
<stop stop-color="white" stop-opacity="0.65"/>
<stop offset="1" stop-color="white" stop-opacity="0.1"/>
</linearGradient>
<linearGradient id="paint46_linear_11_363" x1="234.851" y1="121.796" x2="131.989" y2="121.796" gradientUnits="userSpaceOnUse">
<stop stop-color="white" stop-opacity="0.65"/>
<stop offset="1" stop-color="white" stop-opacity="0.1"/>
</linearGradient>
<linearGradient id="paint47_linear_11_363" x1="236.869" y1="119.778" x2="134.007" y2="119.778" gradientUnits="userSpaceOnUse">
<stop stop-color="white" stop-opacity="0.65"/>
<stop offset="1" stop-color="white" stop-opacity="0.1"/>
</linearGradient>
<linearGradient id="paint48_linear_11_363" x1="238.891" y1="117.756" x2="136.029" y2="117.756" gradientUnits="userSpaceOnUse">
<stop stop-color="white" stop-opacity="0.65"/>
<stop offset="1" stop-color="white" stop-opacity="0.1"/>
</linearGradient>
<linearGradient id="paint49_linear_11_363" x1="240.911" y1="115.737" x2="138.049" y2="115.737" gradientUnits="userSpaceOnUse">
<stop stop-color="white" stop-opacity="0.65"/>
<stop offset="1" stop-color="white" stop-opacity="0.1"/>
</linearGradient>
<linearGradient id="paint50_linear_11_363" x1="242.934" y1="113.715" x2="140.072" y2="113.715" gradientUnits="userSpaceOnUse">
<stop stop-color="white" stop-opacity="0.65"/>
<stop offset="1" stop-color="white" stop-opacity="0.1"/>
</linearGradient>
<linearGradient id="paint51_linear_11_363" x1="244.953" y1="111.694" x2="142.091" y2="111.694" gradientUnits="userSpaceOnUse">
<stop stop-color="white" stop-opacity="0.65"/>
<stop offset="1" stop-color="white" stop-opacity="0.1"/>
</linearGradient>
<linearGradient id="paint52_linear_11_363" x1="246.974" y1="109.676" x2="144.112" y2="109.675" gradientUnits="userSpaceOnUse">
<stop stop-color="white" stop-opacity="0.65"/>
<stop offset="1" stop-color="white" stop-opacity="0.1"/>
</linearGradient>
<linearGradient id="paint53_linear_11_363" x1="248.993" y1="107.657" x2="146.131" y2="107.657" gradientUnits="userSpaceOnUse">
<stop stop-color="white" stop-opacity="0.65"/>
<stop offset="1" stop-color="white" stop-opacity="0.1"/>
</linearGradient>
<linearGradient id="paint54_linear_11_363" x1="251.012" y1="105.635" x2="148.151" y2="105.634" gradientUnits="userSpaceOnUse">
<stop stop-color="white" stop-opacity="0.65"/>
<stop offset="1" stop-color="white" stop-opacity="0.1"/>
</linearGradient>
<linearGradient id="paint55_linear_11_363" x1="253.033" y1="103.614" x2="150.171" y2="103.614" gradientUnits="userSpaceOnUse">
<stop stop-color="white" stop-opacity="0.65"/>
<stop offset="1" stop-color="white" stop-opacity="0.1"/>
</linearGradient>
<linearGradient id="paint56_linear_11_363" x1="255.052" y1="101.595" x2="152.191" y2="101.594" gradientUnits="userSpaceOnUse">
<stop stop-color="white" stop-opacity="0.65"/>
<stop offset="1" stop-color="white" stop-opacity="0.1"/>
</linearGradient>
<linearGradient id="paint57_linear_11_363" x1="257.074" y1="99.5761" x2="154.212" y2="99.5759" gradientUnits="userSpaceOnUse">
<stop stop-color="white" stop-opacity="0.65"/>
<stop offset="1" stop-color="white" stop-opacity="0.1"/>
</linearGradient>
<linearGradient id="paint58_linear_11_363" x1="259.097" y1="97.5527" x2="156.235" y2="97.5524" gradientUnits="userSpaceOnUse">
<stop stop-color="white" stop-opacity="0.65"/>
<stop offset="1" stop-color="white" stop-opacity="0.1"/>
</linearGradient>
<linearGradient id="paint59_linear_11_363" x1="261.115" y1="95.5321" x2="158.254" y2="95.5319" gradientUnits="userSpaceOnUse">
<stop stop-color="white" stop-opacity="0.65"/>
<stop offset="1" stop-color="white" stop-opacity="0.1"/>
</linearGradient>
<linearGradient id="paint60_linear_11_363" x1="263.135" y1="93.5107" x2="160.273" y2="93.5104" gradientUnits="userSpaceOnUse">
<stop stop-color="white" stop-opacity="0.65"/>
<stop offset="1" stop-color="white" stop-opacity="0.1"/>
</linearGradient>
<linearGradient id="paint61_linear_11_363" x1="265.157" y1="91.4902" x2="162.296" y2="91.4899" gradientUnits="userSpaceOnUse">
<stop stop-color="white" stop-opacity="0.65"/>
<stop offset="1" stop-color="white" stop-opacity="0.1"/>
</linearGradient>
<linearGradient id="paint62_linear_11_363" x1="267.178" y1="89.4716" x2="164.316" y2="89.4714" gradientUnits="userSpaceOnUse">
<stop stop-color="white" stop-opacity="0.65"/>
<stop offset="1" stop-color="white" stop-opacity="0.1"/>
</linearGradient>
<linearGradient id="paint63_linear_11_363" x1="269.198" y1="87.4472" x2="166.337" y2="87.447" gradientUnits="userSpaceOnUse">
<stop stop-color="white" stop-opacity="0.65"/>
<stop offset="1" stop-color="white" stop-opacity="0.1"/>
</linearGradient>
<linearGradient id="paint64_linear_11_363" x1="271.219" y1="85.4296" x2="168.358" y2="85.4294" gradientUnits="userSpaceOnUse">
<stop stop-color="white" stop-opacity="0.65"/>
<stop offset="1" stop-color="white" stop-opacity="0.1"/>
</linearGradient>
<linearGradient id="paint65_linear_11_363" x1="273.24" y1="83.4091" x2="170.378" y2="83.4089" gradientUnits="userSpaceOnUse">
<stop stop-color="white" stop-opacity="0.65"/>
<stop offset="1" stop-color="white" stop-opacity="0.1"/>
</linearGradient>
</defs>
</svg>
