<svg width="32" height="32" viewBox="0 0 32 32" fill="none" xmlns="http://www.w3.org/2000/svg">
<path d="M24.4467 24.452H20.8933V18.8827C20.8933 17.5547 20.8667 15.8453 19.04 15.8453C17.188 15.8453 16.9053 17.2907 16.9053 18.7853V24.452H13.3507V13H16.764V14.56H16.8107C17.288 13.6613 18.448 12.7107 20.1813 12.7107C23.7813 12.7107 24.448 15.0813 24.448 18.1653V24.452H24.4467ZM9.33733 11.4333C9.06607 11.4337 8.79741 11.3805 8.54675 11.2768C8.29609 11.1731 8.06836 11.021 7.87661 10.8291C7.68486 10.6372 7.53287 10.4094 7.42935 10.1587C7.32582 9.90795 7.27281 9.63926 7.27333 9.368C7.2736 8.95978 7.39491 8.5608 7.62192 8.22153C7.84894 7.88225 8.17146 7.61791 8.54871 7.46194C8.92595 7.30596 9.34098 7.26536 9.74131 7.34525C10.1416 7.42515 10.5093 7.62197 10.7977 7.91081C11.0862 8.19965 11.2826 8.56755 11.3619 8.96798C11.4413 9.3684 11.4002 9.78338 11.2437 10.1604C11.0872 10.5375 10.8225 10.8597 10.4829 11.0862C10.1434 11.3128 9.74422 11.4336 9.336 11.4333H9.33733ZM11.1187 24.452H7.55467V13H11.12V24.452H11.1187ZM26.2267 4H5.772C4.79067 4 4 4.77333 4 5.72933V26.2707C4 27.2267 4.792 28 5.77067 28H26.2213C27.2 28 28 27.2267 28 26.2707V5.72933C28 4.77333 27.2 4 26.2213 4H26.2253H26.2267Z" fill="#575A7A"/>
</svg>
