<svg width="32" height="32" viewBox="0 0 32 32" fill="none" xmlns="http://www.w3.org/2000/svg">
<path d="M15.9998 2.66699C8.63317 2.66699 2.66651 8.63366 2.66651 16.0003C2.66499 18.7994 3.54492 21.5278 5.18146 23.7986C6.818 26.0693 9.12803 27.7671 11.7838 28.651C12.4505 28.767 12.6998 28.367 12.6998 28.0163C12.6998 27.7003 12.6825 26.651 12.6825 25.5337C9.33317 26.151 8.46651 24.7177 8.19984 23.967C8.04917 23.583 7.39984 22.4003 6.83317 22.083C6.36651 21.8337 5.69984 21.2163 6.81584 21.2003C7.86651 21.183 8.61584 22.167 8.86651 22.567C10.0665 24.583 11.9838 24.0163 12.7492 23.667C12.8665 22.8003 13.2158 22.2177 13.5998 21.8843C10.6332 21.551 7.53317 20.4003 7.53317 15.3003C7.53317 13.8497 8.04917 12.651 8.89984 11.7163C8.76651 11.383 8.29984 10.0163 9.03317 8.18299C9.03317 8.18299 10.1492 7.83366 12.6998 9.55099C13.7853 9.24974 14.9067 9.09812 16.0332 9.10033C17.1665 9.10033 18.2998 9.24966 19.3665 9.54966C21.9158 7.81633 23.0332 8.18433 23.0332 8.18433C23.7665 10.0177 23.2998 11.3843 23.1665 11.7177C24.0158 12.651 24.5332 13.8337 24.5332 15.3003C24.5332 20.4177 21.4172 21.551 18.4505 21.8843C18.9332 22.3003 19.3505 23.1003 19.3505 24.351C19.3505 26.1337 19.3332 27.567 19.3332 28.0177C19.3332 28.367 19.5838 28.783 20.2505 28.6497C22.8972 27.7561 25.1971 26.055 26.8264 23.7859C28.4557 21.5167 29.3324 18.7938 29.3332 16.0003C29.3332 8.63366 23.3665 2.66699 15.9998 2.66699Z" fill="#575A7A"/>
</svg>
